<svg class="w-[200px] h-[42px]" viewBox="0 0 369.9130434782609 76.08695652173913" xmlns="http://www.w3.org/2000/svg">
    <defs></defs>
    <g transform="matrix(1.118925831202046,0,0,1.118925831202046,0,0)" fill="#25A25A">
        <path fill-rule="evenodd" d="M464,240 L482,240 C483.104569,240 484,240.895431 484,242 C484,243.104569 483.104569,244 482,244 L418,244 C416.895431,244 416,243.104569 416,242 C416,240.895431 416.895431,240 418,240 L460,240 L460,215.85275 C457.323395,215.45047 455.012301,214.243918 453.079349,212.480294 C451.654005,211.179812 450.720437,209.873242 450.22831,208.933661 C450.078339,208.647333 450,208.328924 450,208.005699 L450,194.042025 C449.999455,194.015096 449.999457,193.988193 450,193.961331 L450,180 C450,177.909478 452.802813,177.220473 453.772052,179.07273 C453.829457,179.182431 453.980798,179.432605 454.225573,179.775504 C454.649706,180.369661 455.167573,180.967458 455.776086,181.523193 C456.998471,182.639556 458.399044,183.427166 460,183.784395 L460,178 C460,176.895431 460.895431,176 462,176 C463.104569,176 464,176.895431 464,178 L464,183.784395 C465.600956,183.427166 467.001529,182.639556 468.223914,181.523193 C468.832427,180.967458 469.350294,180.369661 469.774427,179.775504 C470.019202,179.432605 470.170543,179.182431 470.227948,179.07273 C471.197187,177.220473 474,177.909478 474,180 L474,193.961332 C474.000543,193.988193 474.000545,194.015096 474,194.042027 L474,208 C474,208.322961 473.921788,208.641118 473.772052,208.92727 C473.280027,209.867552 472.346582,211.175191 470.92135,212.476807 C468.988308,214.24219 466.676984,215.449979 464,215.852634 L464,240 Z M470,199.252936 C468.266657,200.595594 466.264112,201.512081 464,201.852634 L464,211.784395 C465.600956,211.427166 467.001529,210.639556 468.223914,209.523193 C468.832427,208.967458 469.350294,208.369661 469.774427,207.775504 C469.86143,207.653624 469.936628,207.543459 470,207.447153 L470,199.252936 Z M460,211.78465 L460,211.78465 L460,201.852634 C457.735888,201.512081 455.733343,200.595594 454,199.252936 L454,207.452332 C454.063256,207.54835 454.13828,207.658141 454.225051,207.779581 C454.649123,208.373089 455.166928,208.970247 455.775388,209.525404 C456.997885,210.64081 458.398686,211.427762 460,211.78465 Z M454,193.447153 L454,193.447153 C454.063372,193.543459 454.13857,193.653624 454.225573,193.775504 C454.649706,194.369661 455.167573,194.967458 455.776086,195.523193 C456.998471,196.639556 458.399044,197.427166 460,197.784395 L460,187.852634 C457.735888,187.512081 455.733343,186.595594 454,185.252936 L454,193.447153 Z M464,187.852634 L464,197.784395 C465.600956,197.427166 467.001529,196.639556 468.223914,195.523193 C468.832427,194.967458 469.350294,194.369661 469.774427,193.775504 C469.86143,193.653624 469.936628,193.543459 470,193.447153 L470,185.252936 C468.266657,186.595594 466.264112,187.512081 464,187.852634 Z M418,234 C416.895431,234 416,233.104569 416,232 C416,230.895431 416.895431,230 418,230 L454,230 C455.104569,230 456,230.895431 456,232 C456,233.104569 455.104569,234 454,234 L418,234 Z M470,234 C468.895431,234 468,233.104569 468,232 C468,230.895431 468.895431,230 470,230 L482,230 C483.104569,230 484,230.895431 484,232 C484,233.104569 483.104569,234 482,234 L470,234 Z" transform="translate(-416 -176)"></path>
    </g>
    <g transform="matrix(1.5907810181180682,0,0,1.5907810181180682,94.16694322215501,-2.704405322817351)" fill="#25A25A">
        <path d="M5.332 36.0937c-2.7865-2.7865-4.1797-6.1459-4.1797-10.078s1.3932-7.2916 4.1797-10.078 6.1459-4.1797 10.078-4.1797c1.9401 0 3.7891 0.37109 5.5469 1.1133l-1.6406 3.9258c-1.25-0.53385-2.5521-0.80078-3.9063-0.80078-2.7604 0-5.1172 0.98307-7.0703 2.9492-1.9531 1.9531-2.9297 4.31-2.9297 7.0703s0.97656 5.1172 2.9297 7.0703 4.31 2.9297 7.0703 2.9297c0.89844 0 1.7708-0.11068 2.6172-0.33203l0-7.6172-4.5313 0 0-4.2578 8.7891 0 0 14.785-1.2891 0.54688c-1.7838 0.75521-3.6459 1.1328-5.5859 1.1328-3.9322 0-7.2916-1.3932-10.078-4.1797zM29.58985625 23.984l0-7.6953 6.0742 0c1.0547 0 1.9596 0.3776 2.7148 1.1328 0.74219 0.75521 1.1133 1.6667 1.1133 2.7344 0 1.0547-0.37109 1.9531-1.1133 2.6953-0.75521 0.75521-1.6602 1.1328-2.7148 1.1328l-6.0742 0zM38.82765625 27.578c1.4583-0.625 2.6367-1.6015 3.5352-2.9297 0.92447-1.3542 1.3867-2.8516 1.3867-4.4922 0-2.2396-0.79428-4.1471-2.3828-5.7227-1.5755-1.5885-3.4766-2.3828-5.7031-2.3828l-10.313 0 0 27.949 4.2383 0 0-11.777 4.7852 0 6.1133 11.777 4.7852 0zM47.67583125 12.051l0 27.949 14.258 0 0-4.2383-10.02 0 0-7.6563 7.7344 0 0-4.2383-7.7344 0 0-7.5781 10.02 0 0-4.2383-14.258 0zM65.33208125 12.051l0 27.949 14.258 0 0-4.2383-10.02 0 0-7.6563 7.7344 0 0-4.2383-7.7344 0 0-7.5781 10.02 0 0-4.2383-14.258 0zM99.08253125 12.051l0 19.98-11.934-19.98-4.4336 0 0 27.949 4.2383 0 0-19.98 11.953 19.98 4.4336 0 0-27.949-4.2578 0zM107.75395625 12.051l0 27.949 14.258 0 0-4.2383-10.02 0 0-23.711-4.2383 0zM129.68750625 12.09l-4.2383 0 0 27.91 4.2383 0 0-27.91zM150.41065625 12.051l0 19.98-11.934-19.98-4.4336 0 0 27.949 4.2383 0 0-19.98 11.953 19.98 4.4336 0 0-27.949-4.2578 0zM159.08208125 12.051l0 27.949 14.258 0 0-4.2383-10.02 0 0-7.6563 7.7344 0 0-4.2383-7.7344 0 0-7.5781 10.02 0 0-4.2383-14.258 0z"></path>
    </g>
</svg>
